<svg width="322" height="346" viewBox="0 0 322 346" fill="none" xmlns="http://www.w3.org/2000/svg">
<rect width="322" height="346" rx="20" fill="#7E7DC2" fill-opacity="0.24"/>
<path d="M179 137H143C133.059 137 125 145.051 125 154.982V190.944C125 200.875 133.059 208.926 143 208.926H179C188.941 208.926 197 200.875 197 190.944V154.982C197 145.051 188.941 137 179 137Z" fill="url(#paint0_linear_5144_4643)"/>
<g clip-path="url(#clip0_5144_4643)">
<path d="M180.619 156.679L161.96 148.897C161.729 148.8 161.48 148.751 161.23 148.751C160.979 148.751 160.731 148.8 160.5 148.897L141.841 156.679C141.494 156.824 141.197 157.069 140.988 157.383C140.779 157.697 140.667 158.067 140.667 158.445V167.903C140.665 174.269 142.552 180.49 146.087 185.774C149.621 191.058 154.643 195.163 160.511 197.567C160.972 197.757 161.489 197.757 161.951 197.567C167.818 195.163 172.84 191.057 176.374 185.774C179.908 180.491 181.795 174.27 181.793 167.904V158.446C181.793 158.068 181.682 157.698 181.473 157.384C181.264 157.069 180.967 156.824 180.619 156.679V156.679ZM177.985 167.904C177.986 173.376 176.402 178.73 173.427 183.314C170.452 187.898 166.214 191.514 161.229 193.721C156.244 191.514 152.006 187.898 149.031 183.314C146.056 178.73 144.472 173.376 144.473 167.904V159.721L161.229 152.734L177.985 159.721V167.904ZM159.126 174.351L167.311 166.131C167.487 165.953 167.697 165.812 167.928 165.716C168.159 165.62 168.407 165.57 168.657 165.57C168.907 165.57 169.154 165.62 169.385 165.716C169.616 165.812 169.826 165.953 170.003 166.131C170.18 166.308 170.32 166.519 170.416 166.751C170.512 166.983 170.561 167.232 170.561 167.483C170.561 167.734 170.512 167.983 170.416 168.215C170.32 168.447 170.18 168.658 170.003 168.835L160.472 178.406C160.115 178.765 159.63 178.966 159.126 178.966C158.621 178.966 158.136 178.765 157.779 178.406L152.458 173.063C152.101 172.704 151.901 172.217 151.901 171.71C151.901 171.203 152.102 170.716 152.459 170.357C152.816 169.999 153.3 169.797 153.806 169.797C154.311 169.798 154.795 169.999 155.152 170.358L159.126 174.351Z" fill="white"/>
</g>
<path d="M190 290.417C190 291.667 187.5 292.5 184.583 292.917C182.708 289.375 178.958 286.667 174.583 284.792C175 284.167 175.417 283.75 175.833 283.125H177.5C183.958 282.917 190 286.875 190 290.417ZM154.167 282.917H152.5C146.042 282.917 140 286.875 140 290.417C140 291.667 142.5 292.5 145.417 292.917C147.292 289.375 151.042 286.667 155.417 284.792L154.167 282.917ZM165 285C169.583 285 173.333 281.25 173.333 276.667C173.333 272.083 169.583 268.333 165 268.333C160.417 268.333 156.667 272.083 156.667 276.667C156.667 281.25 160.417 285 165 285ZM165 287.083C156.458 287.083 148.333 292.5 148.333 297.5C148.333 301.667 165 301.667 165 301.667C165 301.667 181.667 301.667 181.667 297.5C181.667 292.5 173.542 287.083 165 287.083ZM176.875 280.833H177.5C181.042 280.833 183.75 278.125 183.75 274.583C183.75 271.042 181.042 268.333 177.5 268.333C176.458 268.333 175.625 268.542 174.792 268.958C176.458 271.042 177.5 273.75 177.5 276.667C177.5 278.125 177.292 279.583 176.875 280.833ZM152.5 280.833H153.125C152.708 279.583 152.5 278.125 152.5 276.667C152.5 273.75 153.542 271.042 155.208 268.958C154.375 268.542 153.542 268.333 152.5 268.333C148.958 268.333 146.25 271.042 146.25 274.583C146.25 278.125 148.958 280.833 152.5 280.833Z" fill="#4D4B9D"/>
<g filter="url(#filter0_d_5144_4643)">
<path d="M26.7915 184.25L46.7915 164.25L43.8748 161.292L42.3748 162.771C42.1821 162.964 41.9532 163.117 41.7011 163.222C41.4491 163.326 41.1789 163.38 40.9061 163.38C40.6332 163.38 40.3631 163.326 40.111 163.222C39.859 163.117 39.6301 162.964 39.4373 162.771L37.9582 161.292C37.765 161.099 37.6118 160.87 37.5073 160.618C37.4027 160.366 37.3489 160.096 37.3489 159.823C37.3489 159.55 37.4027 159.28 37.5073 159.028C37.6118 158.776 37.765 158.547 37.9582 158.354L49.7498 146.563C49.9426 146.369 50.1715 146.216 50.4235 146.112C50.6756 146.007 50.9457 145.953 51.2186 145.953C51.4914 145.953 51.7616 146.007 52.0136 146.112C52.2657 146.216 52.4946 146.369 52.6873 146.563L54.1665 148.042C54.979 148.854 54.979 150.167 54.1665 150.979L52.6873 152.417L55.6457 155.396C55.8384 155.203 56.0673 155.049 56.3194 154.945C56.5714 154.84 56.8416 154.787 57.1144 154.787C57.3873 154.787 57.6574 154.84 57.9095 154.945C58.1615 155.049 58.3904 155.203 58.5832 155.396C59.3957 156.208 59.3957 157.542 58.5832 158.354L61.5207 161.292L62.9998 159.813C63.8123 159 65.1457 159 65.9582 159.813L67.4165 161.292C68.229 162.104 68.229 163.438 67.4165 164.25L55.6457 176.021C54.8332 176.833 53.4998 176.833 52.6873 176.021L51.229 174.563C51.0312 174.37 50.8739 174.14 50.7666 173.886C50.6592 173.632 50.6039 173.359 50.6039 173.083C50.6039 172.808 50.6592 172.534 50.7666 172.28C50.8739 172.026 51.0312 171.796 51.229 171.604L52.6873 170.125L49.7498 167.188L29.729 187.208C29.5363 187.401 29.3073 187.555 29.0553 187.659C28.8033 187.764 28.5331 187.818 28.2603 187.818C27.9874 187.818 27.7172 187.764 27.4652 187.659C27.2132 187.555 26.9842 187.401 26.7915 187.208C25.979 186.396 25.979 185.063 26.7915 184.25ZM63.6665 181.583C64.7716 181.583 65.8314 182.022 66.6128 182.804C67.3942 183.585 67.8332 184.645 67.8332 185.75V187.833H46.9998V185.75C46.9998 184.645 47.4388 183.585 48.2202 182.804C49.0016 182.022 50.0614 181.583 51.1665 181.583H63.6665Z" fill="#4E4659"/>
</g>
<path d="M172.167 68.25C172.167 67.4259 171.922 66.6203 171.465 65.9351C171.007 65.2499 170.356 64.7158 169.595 64.4005C168.833 64.0851 167.996 64.0026 167.187 64.1633C166.379 64.3241 165.637 64.721 165.054 65.3037C164.471 65.8864 164.074 66.6288 163.914 67.4371C163.753 68.2453 163.835 69.0831 164.151 69.8445C164.466 70.6058 165 71.2566 165.685 71.7144C166.37 72.1722 167.176 72.4166 168 72.4166M168 78.6666C165.94 78.6666 163.926 78.0557 162.213 76.9111C160.5 75.7665 159.165 74.1396 158.376 72.2362C157.588 70.3328 157.382 68.2384 157.784 66.2178C158.186 64.1971 159.178 62.3411 160.634 60.8843C162.091 59.4275 163.947 58.4354 165.968 58.0334C167.989 57.6315 170.083 57.8378 171.986 58.6262C173.89 59.4146 175.517 60.7497 176.661 62.4628C177.806 64.1758 178.417 66.1897 178.417 68.25C178.417 69.0788 178.746 69.8736 179.332 70.4597C179.918 71.0457 180.713 71.375 181.542 71.375C182.371 71.375 183.165 71.0457 183.752 70.4597C184.338 69.8736 184.667 69.0788 184.667 68.25C184.667 64.9536 183.689 61.7313 181.858 58.9904C180.027 56.2496 177.424 54.1134 174.378 52.852C171.333 51.5905 167.982 51.2604 164.749 51.9035C161.516 52.5466 158.546 54.134 156.215 56.4648C153.884 58.7957 152.297 61.7654 151.654 64.9984C151.011 68.2315 151.341 71.5826 152.602 74.628C153.864 77.6734 156 80.2764 158.741 82.1078C161.481 83.9391 164.704 84.9166 168 84.9166H172.167M145.083 68.25C145.083 73.8166 147.069 78.9208 150.369 82.8895M185.75 53.7541C183.603 51.1199 180.896 48.9973 177.825 47.5407C174.755 46.0841 171.399 45.33 168 45.3333C164.633 45.3299 161.306 46.0702 158.258 47.5014C155.21 48.9326 152.515 51.0193 150.367 53.6125M181.596 42.4395C177.406 40.2284 172.738 39.0762 168 39.0833C163.298 39.0761 158.665 40.2107 154.498 42.3895" stroke="#186A21" stroke-width="2" stroke-linecap="round"/>
<path d="M270.812 180.229L263.417 172.833L266.438 169.812L270.812 174.187L279.562 165.437L282.583 168.458L270.812 180.229ZM258.417 187.833C257.271 187.833 256.29 187.426 255.473 186.61C254.658 185.794 254.25 184.812 254.25 183.667V154.5C254.25 153.354 254.658 152.374 255.473 151.558C256.29 150.742 257.271 150.333 258.417 150.333H260.5V146.167H264.667V150.333H281.333V146.167H285.5V150.333H287.583C288.729 150.333 289.71 150.742 290.527 151.558C291.342 152.374 291.75 153.354 291.75 154.5V183.667C291.75 184.812 291.342 185.794 290.527 186.61C289.71 187.426 288.729 187.833 287.583 187.833H258.417ZM258.417 183.667H287.583V162.833H258.417V183.667Z" fill="#27382B"/>
<defs>
<filter id="filter0_d_5144_4643" x="18" y="142" width="58" height="58" filterUnits="userSpaceOnUse" color-interpolation-filters="sRGB">
<feFlood flood-opacity="0" result="BackgroundImageFix"/>
<feColorMatrix in="SourceAlpha" type="matrix" values="0 0 0 0 0 0 0 0 0 0 0 0 0 0 0 0 0 0 127 0" result="hardAlpha"/>
<feOffset dy="4"/>
<feGaussianBlur stdDeviation="2"/>
<feComposite in2="hardAlpha" operator="out"/>
<feColorMatrix type="matrix" values="0 0 0 0 0 0 0 0 0 0 0 0 0 0 0 0 0 0 0.25 0"/>
<feBlend mode="normal" in2="BackgroundImageFix" result="effect1_dropShadow_5144_4643"/>
<feBlend mode="normal" in="SourceGraphic" in2="effect1_dropShadow_5144_4643" result="shape"/>
</filter>
<linearGradient id="paint0_linear_5144_4643" x1="132.442" y1="115.458" x2="210.581" y2="250.195" gradientUnits="userSpaceOnUse">
<stop offset="0.0885417" stop-color="#D844F0"/>
<stop offset="0.567708" stop-color="#818CF8"/>
<stop offset="1" stop-color="#A099FF"/>
</linearGradient>
<clipPath id="clip0_5144_4643">
<rect width="41.1261" height="48.9596" fill="white" transform="translate(140.667 148.75)"/>
</clipPath>
</defs>
</svg>
