<svg width="184" height="184" viewBox="0 0 184 184" fill="none" xmlns="http://www.w3.org/2000/svg">
<path d="M137.869 0H45.9563C20.5753 0 0 20.5542 0 45.9091V137.727C0 163.082 20.5753 183.636 45.9563 183.636H137.869C163.25 183.636 183.825 163.082 183.825 137.727V45.9091C183.825 20.5542 163.25 0 137.869 0Z" fill="url(#paint0_linear_5138_4841)"/>
<g clip-path="url(#clip0_5138_4841)">
<path d="M142.003 50.2434L94.3636 30.3742C93.7728 30.1278 93.1394 30.001 92.4996 30.001C91.8599 30.001 91.2265 30.1278 90.6357 30.3742L42.9975 50.2434C42.1104 50.6133 41.3524 51.2388 40.8189 52.0409C40.2855 52.8431 40.0005 53.7861 40 54.7508V78.9C39.9959 95.152 44.8131 111.037 53.8369 124.526C62.8607 138.016 75.6817 148.499 90.6633 154.636C91.8417 155.12 93.1619 155.12 94.3403 154.636C109.321 148.498 122.141 138.016 131.164 124.527C140.187 111.038 145.004 95.1539 145 78.9028V54.7536C145 53.7884 144.715 52.8448 144.182 52.042C143.648 51.2393 142.89 50.6134 142.003 50.2434V50.2434ZM135.278 78.9028C135.28 92.8735 131.237 106.543 123.641 118.246C116.045 129.949 105.224 139.181 92.4975 144.816C79.7706 139.181 68.9501 129.949 61.3543 118.246C53.7584 106.543 49.7152 92.8735 49.7172 78.9028V58.0109L92.4975 40.1703L135.278 58.0109V78.9028ZM87.127 95.3613L108.024 74.3741C108.476 73.9207 109.012 73.5611 109.601 73.3157C110.191 73.0703 110.823 72.944 111.462 72.944C112.1 72.944 112.732 73.0703 113.322 73.3157C113.912 73.5611 114.447 73.9207 114.899 74.3741C115.35 74.8275 115.708 75.3658 115.953 75.9582C116.197 76.5506 116.323 77.1856 116.323 77.8268C116.323 78.468 116.197 79.1029 115.953 79.6953C115.708 80.2877 115.35 80.826 114.899 81.2794L90.5643 105.716C89.6526 106.631 88.4162 107.146 87.127 107.146C85.8378 107.146 84.6014 106.631 83.6897 105.716L70.1047 92.0727C69.193 91.1566 68.681 89.9143 68.6813 88.6191C68.6816 87.3238 69.1941 86.0817 70.1061 85.166C71.0181 84.2503 72.2549 83.736 73.5443 83.7363C74.8338 83.7366 76.0704 84.2514 76.982 85.1674L87.127 95.3613Z" fill="white"/>
</g>
<defs>
<linearGradient id="paint0_linear_5138_4841" x1="19" y1="-55" x2="218.5" y2="289" gradientUnits="userSpaceOnUse">
<stop offset="0.0885417" stop-color="#D844F0"/>
<stop offset="0.567708" stop-color="#818CF8"/>
<stop offset="1" stop-color="#A099FF"/>
</linearGradient>
<clipPath id="clip0_5138_4841">
<rect width="105" height="125" fill="white" transform="translate(40 30)"/>
</clipPath>
</defs>
</svg>
