<svg width="700" height="184" viewBox="0 0 700 184" fill="none" xmlns="http://www.w3.org/2000/svg">
<path d="M225.164 132H209.695L237.859 52H255.75L283.953 132H268.484L247.117 68.4062H246.492L225.164 132ZM225.672 100.633H267.859V112.273H225.672V100.633ZM340.32 87.8594L327.43 89.2656C327.065 87.9635 326.427 86.7396 325.516 85.5938C324.63 84.4479 323.432 83.5234 321.922 82.8203C320.411 82.1172 318.563 81.7656 316.375 81.7656C313.432 81.7656 310.958 82.4036 308.953 83.6797C306.974 84.9557 305.997 86.6094 306.023 88.6406C305.997 90.3854 306.635 91.8047 307.938 92.8984C309.266 93.9922 311.453 94.8906 314.5 95.5938L324.734 97.7812C330.411 99.0052 334.63 100.945 337.391 103.602C340.177 106.258 341.583 109.734 341.609 114.031C341.583 117.807 340.477 121.141 338.289 124.031C336.128 126.896 333.12 129.135 329.266 130.75C325.411 132.365 320.984 133.172 315.984 133.172C308.641 133.172 302.729 131.635 298.25 128.562C293.771 125.464 291.102 121.154 290.242 115.633L304.031 114.305C304.656 117.013 305.984 119.057 308.016 120.437C310.047 121.818 312.69 122.508 315.945 122.508C319.305 122.508 322 121.818 324.031 120.437C326.089 119.057 327.117 117.352 327.117 115.32C327.117 113.602 326.453 112.182 325.125 111.062C323.823 109.943 321.792 109.083 319.031 108.484L308.797 106.336C303.042 105.138 298.784 103.12 296.023 100.281C293.263 97.4167 291.896 93.7969 291.922 89.4219C291.896 85.724 292.898 82.5208 294.93 79.8125C296.987 77.0781 299.839 74.9687 303.484 73.4844C307.156 71.974 311.388 71.2188 316.18 71.2188C323.211 71.2188 328.745 72.7161 332.781 75.7109C336.844 78.7057 339.357 82.7552 340.32 87.8594ZM379.363 155.75C374.285 155.75 369.923 155.06 366.277 153.68C362.632 152.326 359.702 150.503 357.488 148.211C355.275 145.919 353.738 143.38 352.879 140.594L365.613 137.508C366.186 138.68 367.02 139.839 368.113 140.984C369.207 142.156 370.678 143.12 372.527 143.875C374.402 144.656 376.759 145.047 379.598 145.047C383.608 145.047 386.928 144.07 389.559 142.117C392.189 140.19 393.504 137.013 393.504 132.586V121.219H392.801C392.072 122.677 391.004 124.174 389.598 125.711C388.217 127.247 386.382 128.536 384.09 129.578C381.824 130.62 378.973 131.141 375.535 131.141C370.926 131.141 366.746 130.06 362.996 127.898C359.272 125.711 356.303 122.456 354.09 118.133C351.902 113.784 350.809 108.341 350.809 101.805C350.809 95.2161 351.902 89.6562 354.09 85.125C356.303 80.5677 359.285 77.1172 363.035 74.7734C366.785 72.4036 370.965 71.2188 375.574 71.2188C379.09 71.2188 381.98 71.8177 384.246 73.0156C386.538 74.1875 388.361 75.6068 389.715 77.2734C391.069 78.9141 392.098 80.4635 392.801 81.9219H393.582V72H407.527V132.977C407.527 138.107 406.303 142.352 403.855 145.711C401.408 149.07 398.061 151.583 393.816 153.25C389.572 154.917 384.754 155.75 379.363 155.75ZM379.48 120.047C382.475 120.047 385.027 119.318 387.137 117.859C389.246 116.401 390.848 114.305 391.941 111.57C393.035 108.836 393.582 105.555 393.582 101.727C393.582 97.9505 393.035 94.6432 391.941 91.8047C390.874 88.9661 389.285 86.7656 387.176 85.2031C385.092 83.6146 382.527 82.8203 379.48 82.8203C376.329 82.8203 373.699 83.6406 371.59 85.2812C369.48 86.9219 367.892 89.1745 366.824 92.0391C365.757 94.8776 365.223 98.1068 365.223 101.727C365.223 105.398 365.757 108.615 366.824 111.375C367.918 114.109 369.52 116.245 371.629 117.781C373.764 119.292 376.382 120.047 379.48 120.047ZM460.262 106.766V72H474.402V132H460.691V121.336H460.066C458.712 124.695 456.486 127.443 453.387 129.578C450.314 131.714 446.525 132.781 442.02 132.781C438.087 132.781 434.611 131.909 431.59 130.164C428.595 128.393 426.251 125.828 424.559 122.469C422.866 119.083 422.02 114.995 422.02 110.203V72H436.16V108.016C436.16 111.818 437.202 114.839 439.285 117.078C441.368 119.318 444.103 120.437 447.488 120.437C449.572 120.437 451.59 119.93 453.543 118.914C455.496 117.898 457.098 116.388 458.348 114.383C459.624 112.352 460.262 109.812 460.262 106.766ZM506.209 133.211C502.407 133.211 498.982 132.534 495.936 131.18C492.915 129.799 490.519 127.768 488.748 125.086C487.003 122.404 486.131 119.096 486.131 115.164C486.131 111.779 486.756 108.979 488.006 106.766C489.256 104.552 490.962 102.781 493.123 101.453C495.285 100.125 497.719 99.1224 500.428 98.4453C503.162 97.7422 505.988 97.2344 508.904 96.9219C512.42 96.5573 515.271 96.2318 517.459 95.9453C519.646 95.6328 521.235 95.1641 522.225 94.5391C523.24 93.888 523.748 92.8854 523.748 91.5312V91.2969C523.748 88.3542 522.876 86.0755 521.131 84.4609C519.386 82.8464 516.873 82.0391 513.592 82.0391C510.128 82.0391 507.381 82.7943 505.35 84.3047C503.344 85.8151 501.99 87.599 501.287 89.6562L488.084 87.7812C489.126 84.1354 490.844 81.0885 493.24 78.6406C495.636 76.1667 498.566 74.3177 502.029 73.0937C505.493 71.8438 509.321 71.2188 513.514 71.2188C516.404 71.2188 519.282 71.5573 522.146 72.2344C525.011 72.9115 527.628 74.0312 529.998 75.5937C532.368 77.1302 534.269 79.2266 535.701 81.8828C537.16 84.5391 537.889 87.8594 537.889 91.8437V132H524.295V123.758H523.826C522.967 125.424 521.756 126.987 520.193 128.445C518.657 129.878 516.717 131.036 514.373 131.922C512.055 132.781 509.334 133.211 506.209 133.211ZM509.881 122.82C512.719 122.82 515.18 122.26 517.264 121.141C519.347 119.995 520.949 118.484 522.068 116.609C523.214 114.734 523.787 112.69 523.787 110.477V103.406C523.344 103.771 522.589 104.109 521.521 104.422C520.48 104.734 519.308 105.008 518.006 105.242C516.704 105.477 515.415 105.685 514.139 105.867C512.863 106.049 511.756 106.206 510.818 106.336C508.709 106.622 506.821 107.091 505.154 107.742C503.488 108.393 502.173 109.305 501.209 110.477C500.245 111.622 499.764 113.107 499.764 114.93C499.764 117.534 500.714 119.5 502.615 120.828C504.516 122.156 506.938 122.82 509.881 122.82ZM552.107 132V72H565.818V82H566.443C567.537 78.5365 569.412 75.8672 572.068 73.9922C574.751 72.0911 577.811 71.1406 581.248 71.1406C582.029 71.1406 582.902 71.1797 583.865 71.2578C584.855 71.3099 585.675 71.401 586.326 71.5312V84.5391C585.727 84.3307 584.777 84.1484 583.475 83.9922C582.199 83.8099 580.962 83.7187 579.764 83.7187C577.186 83.7187 574.868 84.2786 572.811 85.3984C570.779 86.4922 569.178 88.0156 568.006 89.9687C566.834 91.9219 566.248 94.1745 566.248 96.7266V132H552.107ZM615.516 133.055C610.802 133.055 606.583 131.844 602.859 129.422C599.135 127 596.193 123.484 594.031 118.875C591.87 114.266 590.789 108.667 590.789 102.078C590.789 95.4115 591.883 89.7865 594.07 85.2031C596.284 80.5937 599.266 77.1172 603.016 74.7734C606.766 72.4036 610.945 71.2188 615.555 71.2188C619.07 71.2188 621.961 71.8177 624.227 73.0156C626.492 74.1875 628.289 75.6068 629.617 77.2734C630.945 78.9141 631.974 80.4635 632.703 81.9219H633.289V52H647.469V132H633.563V122.547H632.703C631.974 124.005 630.919 125.555 629.539 127.195C628.159 128.81 626.336 130.19 624.07 131.336C621.805 132.482 618.953 133.055 615.516 133.055ZM619.461 121.453C622.456 121.453 625.008 120.646 627.117 119.031C629.227 117.391 630.828 115.112 631.922 112.195C633.016 109.279 633.563 105.88 633.563 102C633.563 98.1198 633.016 94.7474 631.922 91.8828C630.854 89.0182 629.266 86.7917 627.156 85.2031C625.073 83.6146 622.508 82.8203 619.461 82.8203C616.31 82.8203 613.68 83.6406 611.57 85.2812C609.461 86.9219 607.872 89.1875 606.805 92.0781C605.737 94.9687 605.203 98.276 605.203 102C605.203 105.75 605.737 109.096 606.805 112.039C607.898 114.956 609.5 117.26 611.609 118.953C613.745 120.62 616.362 121.453 619.461 121.453Z" fill="#C7C8D9"/>
<path d="M137.869 0H45.9563C20.5753 0 0 20.5542 0 45.9091V137.727C0 163.082 20.5753 183.636 45.9563 183.636H137.869C163.25 183.636 183.825 163.082 183.825 137.727V45.9091C183.825 20.5542 163.25 0 137.869 0Z" fill="url(#paint0_linear_5138_4836)"/>
<g clip-path="url(#clip0_5138_4836)">
<path d="M142.003 50.2434L94.3636 30.3742C93.7728 30.1278 93.1394 30.001 92.4996 30.001C91.8599 30.001 91.2265 30.1278 90.6357 30.3742L42.9975 50.2434C42.1104 50.6133 41.3524 51.2388 40.8189 52.0409C40.2855 52.8431 40.0005 53.7861 40 54.7508V78.9C39.9959 95.152 44.8131 111.037 53.8369 124.526C62.8607 138.016 75.6817 148.499 90.6633 154.636C91.8417 155.12 93.1619 155.12 94.3403 154.636C109.321 148.498 122.141 138.016 131.164 124.527C140.187 111.038 145.004 95.1539 145 78.9028V54.7536C145 53.7884 144.715 52.8448 144.182 52.042C143.648 51.2393 142.89 50.6134 142.003 50.2434V50.2434ZM135.278 78.9028C135.28 92.8735 131.237 106.543 123.641 118.246C116.045 129.949 105.224 139.181 92.4975 144.816C79.7706 139.181 68.9501 129.949 61.3543 118.246C53.7584 106.543 49.7152 92.8735 49.7172 78.9028V58.0109L92.4975 40.1703L135.278 58.0109V78.9028ZM87.127 95.3613L108.024 74.3741C108.476 73.9207 109.012 73.5611 109.601 73.3157C110.191 73.0703 110.823 72.944 111.462 72.944C112.1 72.944 112.732 73.0703 113.322 73.3157C113.912 73.5611 114.447 73.9207 114.899 74.3741C115.35 74.8275 115.708 75.3658 115.953 75.9582C116.197 76.5506 116.323 77.1856 116.323 77.8268C116.323 78.468 116.197 79.1029 115.953 79.6953C115.708 80.2877 115.35 80.826 114.899 81.2794L90.5643 105.716C89.6526 106.631 88.4162 107.146 87.127 107.146C85.8378 107.146 84.6014 106.631 83.6897 105.716L70.1047 92.0727C69.193 91.1566 68.681 89.9143 68.6813 88.6191C68.6816 87.3238 69.1941 86.0817 70.1061 85.166C71.0181 84.2503 72.2549 83.736 73.5443 83.7363C74.8338 83.7366 76.0704 84.2514 76.982 85.1674L87.127 95.3613Z" fill="white"/>
</g>
<path d="M137.869 0H45.9563C20.5753 0 0 20.5542 0 45.9091V137.727C0 163.082 20.5753 183.636 45.9563 183.636H137.869C163.25 183.636 183.825 163.082 183.825 137.727V45.9091C183.825 20.5542 163.25 0 137.869 0Z" fill="url(#paint1_linear_5138_4836)"/>
<g clip-path="url(#clip1_5138_4836)">
<path d="M142.003 50.2434L94.3636 30.3742C93.7728 30.1278 93.1394 30.001 92.4996 30.001C91.8599 30.001 91.2265 30.1278 90.6357 30.3742L42.9975 50.2434C42.1104 50.6133 41.3524 51.2388 40.8189 52.0409C40.2855 52.8431 40.0005 53.7861 40 54.7508V78.9C39.9959 95.152 44.8131 111.037 53.8369 124.526C62.8607 138.016 75.6817 148.499 90.6633 154.636C91.8417 155.12 93.1619 155.12 94.3403 154.636C109.321 148.498 122.141 138.016 131.164 124.527C140.187 111.038 145.004 95.1539 145 78.9028V54.7536C145 53.7884 144.715 52.8448 144.182 52.042C143.648 51.2393 142.89 50.6134 142.003 50.2434V50.2434ZM135.278 78.9028C135.28 92.8735 131.237 106.543 123.641 118.246C116.045 129.949 105.224 139.181 92.4975 144.816C79.7706 139.181 68.9501 129.949 61.3543 118.246C53.7584 106.543 49.7152 92.8735 49.7172 78.9028V58.0109L92.4975 40.1703L135.278 58.0109V78.9028ZM87.127 95.3613L108.024 74.3741C108.476 73.9207 109.012 73.5611 109.601 73.3157C110.191 73.0703 110.823 72.944 111.462 72.944C112.1 72.944 112.732 73.0703 113.322 73.3157C113.912 73.5611 114.447 73.9207 114.899 74.3741C115.35 74.8275 115.708 75.3658 115.953 75.9582C116.197 76.5506 116.323 77.1856 116.323 77.8268C116.323 78.468 116.197 79.1029 115.953 79.6953C115.708 80.2877 115.35 80.826 114.899 81.2794L90.5643 105.716C89.6526 106.631 88.4162 107.146 87.127 107.146C85.8378 107.146 84.6014 106.631 83.6897 105.716L70.1047 92.0727C69.193 91.1566 68.681 89.9143 68.6813 88.6191C68.6816 87.3238 69.1941 86.0817 70.1061 85.166C71.0181 84.2503 72.2549 83.736 73.5443 83.7363C74.8338 83.7366 76.0704 84.2514 76.982 85.1674L87.127 95.3613Z" fill="white"/>
</g>
<defs>
<linearGradient id="paint0_linear_5138_4836" x1="19" y1="-55" x2="218.5" y2="289" gradientUnits="userSpaceOnUse">
<stop offset="0.0885417" stop-color="#D844F0"/>
<stop offset="0.567708" stop-color="#818CF8"/>
<stop offset="1" stop-color="#A099FF"/>
</linearGradient>
<linearGradient id="paint1_linear_5138_4836" x1="19" y1="-55" x2="218.5" y2="289" gradientUnits="userSpaceOnUse">
<stop offset="0.0885417" stop-color="#D844F0"/>
<stop offset="0.567708" stop-color="#818CF8"/>
<stop offset="1" stop-color="#A099FF"/>
</linearGradient>
<clipPath id="clip0_5138_4836">
<rect width="105" height="125" fill="white" transform="translate(40 30)"/>
</clipPath>
<clipPath id="clip1_5138_4836">
<rect width="105" height="125" fill="white" transform="translate(40 30)"/>
</clipPath>
</defs>
</svg>
